<?xml version="1.0" encoding="UTF-8"?>
<svg xmlns="http://www.w3.org/2000/svg" xmlns:xlink="http://www.w3.org/1999/xlink" width="128px" height="128px" viewBox="0 0 256 256" version="1.1">
<g id="surface1">
<path style=" stroke:none;fill-rule:nonzero;fill:rgb(100%,88.235294%,49.019608%);fill-opacity:1;" d="M 256 128 C 256 198.691406 198.691406 256 128 256 C 57.308594 256 0 198.691406 0 128 C 0 57.308594 57.308594 0 128 0 C 198.691406 0 256 57.308594 256 128 Z M 256 128 "/>
<path style=" stroke:none;fill-rule:nonzero;fill:rgb(100%,81.960784%,39.215686%);fill-opacity:1;" d="M 146.582031 237.417969 C 75.886719 237.417969 18.582031 180.113281 18.582031 109.417969 C 18.582031 78.804688 29.339844 50.714844 47.269531 28.6875 C 18.433594 52.15625 0 87.921875 0 128 C 0 198.691406 57.308594 256 128 256 C 168.078125 256 203.84375 237.566406 227.3125 208.730469 C 205.285156 226.65625 177.195312 237.417969 146.582031 237.417969 Z M 146.582031 237.417969 "/>
<path style=" stroke:none;fill-rule:nonzero;fill:rgb(100%,81.960784%,39.215686%);fill-opacity:1;" d="M 90.839844 256 C 95.378906 256 99.097656 252.285156 99.097656 247.742188 C 99.097656 243.199219 95.378906 239.484375 90.839844 239.484375 L 94.96875 239.484375 C 99.511719 239.484375 103.226562 235.765625 103.226562 231.226562 C 103.226562 226.683594 99.511719 222.96875 94.96875 222.96875 L 99.097656 222.96875 C 103.640625 222.96875 107.355469 219.25 107.355469 214.710938 C 107.355469 210.167969 103.640625 206.453125 99.097656 206.453125 L 144.515625 206.453125 C 149.078125 206.453125 152.773438 202.753906 152.773438 198.195312 C 152.773438 193.632812 149.078125 189.9375 144.515625 189.9375 L 70.195312 189.9375 C 63.351562 189.9375 57.808594 184.390625 57.808594 177.546875 L 57.808594 152.773438 C 57.808594 148.214844 54.109375 144.515625 49.550781 144.515625 C 44.988281 144.515625 41.289062 148.214844 41.289062 152.773438 L 41.289062 172.988281 C 41.289062 178.613281 39.375 184.070312 35.863281 188.464844 L 32.011719 193.273438 C 27.328125 199.132812 24.773438 206.410156 24.773438 213.910156 L 24.773438 231.226562 C 24.773438 244.910156 35.867188 256 49.546875 256 Z M 90.839844 256 "/>
<path style=" stroke:none;fill-rule:nonzero;fill:rgb(100%,76.470588%,31.372549%);fill-opacity:1;" d="M 99.097656 247.742188 L 49.550781 247.742188 C 40.441406 247.742188 33.03125 240.332031 33.03125 231.226562 L 33.03125 213.910156 C 33.03125 208.304688 34.960938 202.808594 38.460938 198.433594 L 42.3125 193.621094 C 46.976562 187.789062 49.550781 180.460938 49.550781 172.988281 L 49.550781 144.515625 C 44.988281 144.515625 41.289062 148.214844 41.289062 152.773438 L 41.289062 172.988281 C 41.289062 178.613281 39.375 184.070312 35.863281 188.464844 L 32.011719 193.273438 C 27.328125 199.132812 24.773438 206.410156 24.773438 213.910156 L 24.773438 231.226562 C 24.773438 244.910156 35.867188 256 49.550781 256 L 90.839844 256 C 95.378906 256 99.097656 252.285156 99.097656 247.742188 Z M 99.097656 247.742188 "/>
<path style=" stroke:none;fill-rule:nonzero;fill:rgb(100%,76.470588%,31.372549%);fill-opacity:1;" d="M 152.773438 198.191406 L 94.96875 198.191406 C 92.6875 198.191406 90.839844 200.042969 90.839844 202.320312 C 90.839844 204.601562 92.6875 206.449219 94.96875 206.449219 L 144.515625 206.449219 C 149.078125 206.449219 152.773438 202.753906 152.773438 198.191406 Z M 152.773438 198.191406 "/>
<path style=" stroke:none;fill-rule:nonzero;fill:rgb(100%,76.470588%,31.372549%);fill-opacity:1;" d="M 86.710938 218.839844 C 86.710938 221.117188 88.558594 222.96875 90.839844 222.96875 L 99.097656 222.96875 C 103.640625 222.96875 107.355469 219.25 107.355469 214.710938 L 90.839844 214.710938 C 88.558594 214.710938 86.710938 216.558594 86.710938 218.839844 Z M 86.710938 218.839844 "/>
<path style=" stroke:none;fill-rule:nonzero;fill:rgb(100%,76.470588%,31.372549%);fill-opacity:1;" d="M 82.582031 235.355469 C 82.582031 237.632812 84.429688 239.484375 86.710938 239.484375 L 94.96875 239.484375 C 99.511719 239.484375 103.226562 235.765625 103.226562 231.226562 L 86.710938 231.226562 C 84.429688 231.226562 82.582031 233.074219 82.582031 235.355469 Z M 82.582031 235.355469 "/>
<path style=" stroke:none;fill-rule:nonzero;fill:rgb(66.666667%,45.098039%,27.45098%);fill-opacity:1;" d="M 148.636719 170.320312 C 147.859375 170.320312 147.070312 170.144531 146.324219 169.769531 C 146.039062 169.628906 117.730469 155.554688 86.4375 154.839844 C 83.585938 154.773438 81.328125 152.410156 81.390625 149.558594 C 81.457031 146.710938 83.824219 144.351562 86.667969 144.519531 C 120.363281 145.292969 149.738281 159.929688 150.972656 160.554688 C 153.515625 161.835938 154.535156 164.9375 153.253906 167.484375 C 152.347656 169.285156 150.527344 170.320312 148.636719 170.320312 Z M 148.636719 170.320312 "/>
<path style=" stroke:none;fill-rule:nonzero;fill:rgb(66.666667%,45.098039%,27.45098%);fill-opacity:1;" d="M 94.964844 67.097656 C 93.839844 67.097656 92.707031 66.730469 91.757812 65.976562 C 90.980469 65.363281 73.226562 51.738281 51.855469 62.421875 C 49.316406 63.699219 46.203125 62.660156 44.933594 60.113281 C 43.65625 57.5625 44.691406 54.464844 47.242188 53.1875 C 74.652344 39.472656 97.246094 57.144531 98.195312 57.90625 C 100.417969 59.683594 100.777344 62.933594 99 65.160156 C 97.980469 66.433594 96.480469 67.097656 94.964844 67.097656 Z M 94.964844 67.097656 "/>
<path style=" stroke:none;fill-rule:nonzero;fill:rgb(66.666667%,45.098039%,27.45098%);fill-opacity:1;" d="M 152.769531 75.355469 C 150.359375 75.355469 148.207031 73.660156 147.714844 71.207031 C 147.152344 68.410156 148.96875 65.691406 151.761719 65.132812 L 193.050781 56.875 C 195.863281 56.316406 198.566406 58.128906 199.125 60.925781 C 199.6875 63.71875 197.871094 66.4375 195.078125 66.996094 L 153.785156 75.253906 C 153.445312 75.324219 153.105469 75.355469 152.769531 75.355469 Z M 152.769531 75.355469 "/>
<path style=" stroke:none;fill-rule:nonzero;fill:rgb(49.019608%,31.372549%,27.45098%);fill-opacity:1;" d="M 76.003906 104.007812 C 70.34375 103.3125 66.324219 98.160156 67.019531 92.5 L 68.03125 84.304688 C 68.730469 78.648438 73.882812 74.625 79.539062 75.324219 C 85.199219 76.019531 89.21875 81.171875 88.523438 86.832031 L 87.511719 95.027344 C 86.8125 100.683594 81.660156 104.707031 76.003906 104.007812 Z M 76.003906 104.007812 "/>
<path style=" stroke:none;fill-rule:nonzero;fill:rgb(61.176471%,40.784314%,27.45098%);fill-opacity:1;" d="M 79.539062 75.324219 C 78.835938 75.238281 78.144531 75.222656 77.464844 75.277344 L 75.722656 89.414062 C 75.304688 92.808594 77.714844 95.898438 81.113281 96.316406 C 84.507812 96.738281 87.597656 94.324219 88.015625 90.929688 L 88.523438 86.832031 C 89.21875 81.171875 85.199219 76.019531 79.539062 75.324219 Z M 79.539062 75.324219 "/>
<path style=" stroke:none;fill-rule:nonzero;fill:rgb(49.019608%,31.372549%,27.45098%);fill-opacity:1;" d="M 162.453125 113.039062 C 156.796875 112.34375 152.773438 107.191406 153.472656 101.53125 L 154.484375 93.335938 C 155.179688 87.679688 160.332031 83.65625 165.992188 84.355469 C 171.648438 85.050781 175.671875 90.203125 174.972656 95.863281 L 173.960938 104.058594 C 173.265625 109.71875 168.113281 113.738281 162.453125 113.039062 Z M 162.453125 113.039062 "/>
<path style=" stroke:none;fill-rule:nonzero;fill:rgb(61.176471%,40.784314%,27.45098%);fill-opacity:1;" d="M 165.992188 84.355469 C 165.289062 84.269531 164.59375 84.253906 163.917969 84.308594 L 162.171875 98.445312 C 161.753906 101.839844 164.167969 104.933594 167.5625 105.351562 C 170.957031 105.769531 174.050781 103.355469 174.46875 99.960938 L 174.972656 95.863281 C 175.671875 90.203125 171.648438 85.054688 165.992188 84.355469 Z M 165.992188 84.355469 "/>
</g>
</svg>
